<?xml version="1.0" encoding="utf-8"?>
<!-- Generator: Adobe Illustrator 23.0.2, SVG Export Plug-In . SVG Version: 6.00 Build 0)  -->
<svg version="1.1" id="Layer_1" xmlns="http://www.w3.org/2000/svg" xmlns:xlink="http://www.w3.org/1999/xlink" x="0px" y="0px"
	 viewBox="0 0 234 159.8" style="enable-background:new 0 0 234 159.8;" xml:space="preserve">
<style type="text/css">
	.st0{opacity:0.72;}
	.st1{fill:#C3B697;}
</style>
<g class="st0">
	<g>
		<g>
			<path class="st1" d="M15.1,20C27.5,7.6,47.6,7.6,59.8,20l-1.4,1.4C46.9,10,28,10,16.5,21.5S5,51.8,16.5,63.3
				c11.7,11.5,30.4,11.5,42,0l1.4,1.4c-12.4,12.4-32.5,12.4-44.7,0C2.8,52.4,2.8,32.4,15.1,20z M19.9,24.7c9.7-9.7,25.5-9.7,35.2,0
				l-1.4,1.4c-9-9-23.4-9-32.3,0s-8.8,23.5,0,32.5s23.4,9,32.3,0l1.4,1.4c-9.7,9.7-25.5,9.7-35.2,0S10.2,34.6,19.9,24.7z M24.6,29.4
				c7.2-7.2,18.7-7,25.9,0L49,30.8c-6.3-6.3-16.5-6.3-22.8,0s-6.3,16.7,0,23s16.7,6.3,23,0l1.4,1.4c-7.2,7.2-18.7,7.2-25.9,0
				S17.4,36.6,24.6,29.4z M29.4,34.2c4.5-4.5,11.7-4.5,16.2,0l-1.4,1.4c-3.6-3.6-9.7-3.6-13.3,0c-3.6,3.6-3.6,9.7,0,13.3
				s9.7,3.6,13.3,0l1.4,1.4c-4.5,4.7-11.7,4.7-16.2,0.2S24.9,38.7,29.4,34.2z"/>
		</g>
		<g>
			<path class="st1" d="M162.2,13v-2.2c-17.4,0-31.8,14.2-31.8,31.8h2.2C132.6,26.3,145.9,13,162.2,13z"/>
			<g>
				<path class="st1" d="M139.2,42.7c0-12.6,10.2-22.8,22.8-22.8v-2c-13.8,0-25,11.1-25,25l0,0c0,5.2-4.3,9.3-9.5,9.3v2.2
					C134.2,54.2,139.2,49,139.2,42.7L139.2,42.7L139.2,42.7z"/>
			</g>
			<path class="st1" d="M127.7,72.3v2.2c17.6,0,31.8-14.2,31.8-31.8h-2.2C157.3,59,144.1,72.3,127.7,72.3z"/>
			<path class="st1" d="M144.1,42.7c0,9-7.4,16.2-16.2,16.2V61c10.1,0,18.3-8.3,18.3-18.3c0-9,7.4-16.2,16.2-16.2v-2.2
				C152.1,24.4,144.1,32.6,144.1,42.7z"/>
			<path class="st1" d="M150.7,42.7L150.7,42.7c0,12.8-10.2,23-22.8,23v2c13.7,0,25-11.1,25-25l0,0c0-5.2,4.3-9.5,9.3-9.5V31
				C155.9,31.2,150.7,36.4,150.7,42.7z"/>
		</g>
		<g>
			<path class="st1" d="M123.6,42.7v31.6h-2.2V42.7c0-16.3-13.1-29.5-29.5-29.5S62.5,26.5,62.5,42.7S75.6,72.1,92,72.1v2.2
				c-17.4,0-31.6-14.2-31.6-31.6S74.5,11.1,92,11.1C109.4,11.2,123.6,25.3,123.6,42.7z M116.7,74.3h-2V42.7
				c0-12.6-10.2-22.8-22.8-22.8S69.1,30.1,69.1,42.7S79.4,65.5,92,65.5v2c-13.7,0-24.8-11.1-24.8-24.8c0-13.8,11.1-24.8,24.8-24.8
				s24.8,11.1,24.8,24.8V74.3L116.7,74.3z M110.1,74.3h-2.2V42.7c0-9-7.2-16.2-16.2-16.2s-16.2,7.2-16.2,16.2
				c0,8.8,7.2,16.2,16.2,16.2V61c-10.1,0-18.3-8.1-18.3-18.1s8.3-18.3,18.3-18.3s18.3,8.1,18.3,18.3V74.3L110.1,74.3z M103.4,42.7
				v31.6h-2.2V42.7c0-5.2-4.1-9.3-9.3-9.3c-5.2,0-9.3,4.3-9.3,9.3S86.7,52,92,52v2.2c-6.3,0-11.5-5.2-11.5-11.5s5-11.5,11.5-11.5
				C98.2,31.2,103.4,36.4,103.4,42.7z"/>
		</g>
		<g>
			<path class="st1" d="M229.4,42.7v31.6h-2.2V42.7c0-16.3-13.1-29.5-29.5-29.5s-29.5,13.3-29.5,29.5s13.1,29.5,29.5,29.5v2.2
				c-17.4,0-31.6-14.2-31.6-31.6s14.2-31.6,31.6-31.6C215.2,11.2,229.4,25.3,229.4,42.7z M222.6,74.3h-2.2V42.7
				c0-12.6-10.2-22.8-22.8-22.8C185,19.9,175,30.1,175,42.7s10.2,22.8,22.8,22.8v2c-13.7,0-24.8-11.1-24.8-24.8
				c0-13.8,11.1-24.8,24.8-24.8c13.7,0,24.8,11.1,24.8,24.8V74.3z M215.9,74.3h-2.2V42.7c0-9-7.2-16.2-16.2-16.2
				c-8.8,0-16.2,7.2-16.2,16.2c0,8.8,7.2,16.2,16.2,16.2V61c-9.9-0.2-18.1-8.3-18.1-18.3s8.3-18.3,18.3-18.3
				c10.1,0,18.3,8.1,18.3,18.3L215.9,74.3L215.9,74.3z M209.1,42.7v31.6h-2.2V42.7c0-5.2-4.1-9.3-9.3-9.3c-5.2,0-9.3,4.3-9.3,9.3
				s4.1,9.3,9.3,9.3v2.2c-6.3,0-11.5-5.2-11.5-11.5s5-11.5,11.5-11.5C204.1,31.2,209.1,36.4,209.1,42.7z"/>
		</g>
	</g>
	<g>
		<g>
			<g>
				<path class="st1" d="M46,85.1c0.2-2.7,1.3-4.1,3.1-4.1h16c1.6,0.2,2.5,1.4,2.7,4l4.5,64.1H60.7l-1.3-13.8H54L53,149H41.5
					L46,85.1z M54.4,128.6c0,0.5,0.2,0.9,0.9,0.9H58c0.7,0,0.9-0.4,0.7-1.1l-1.4-18.3h-1.6L54.4,128.6z"/>
				<path class="st1" d="M76.7,81.1h11.5c2.3,0,3.8,1.3,4.3,3.8l7.9,44.6V80.9h7V149h-9.2c-2.3,0-3.6-1.3-4-4l-3.2-12.8
					c-0.4-1.8-1.3-2.9-2.9-2.9V149H76.7V81.1L76.7,81.1z"/>
				<path class="st1" d="M155,81.1c2.7,0,4,1.6,4,4.7v40.8c0,3.6-2.7,5.6-8.3,5.9c5.6,0.5,8.3,2.5,8.3,5.9v4.9c0,4-1.3,5.9-4,5.9
					h-26.8V81.1H155z M139.7,129.5h5.7c1.3,0,2-0.5,2-1.4v-13.5c0-1.4-0.5-2.2-1.6-2.2h-6.1L139.7,129.5L139.7,129.5z M139.7,143.3
					h5.7c1.3,0,2-0.7,2-2.3v-2.5c0-2-0.7-3.1-2-3.1h-5.7V143.3z"/>
				<path class="st1" d="M168.3,85.1c0.2-2.7,1.3-4.1,3.1-4.1h16c1.6,0.2,2.5,1.4,2.7,4l4.5,64.1H183l-1.3-13.8h-5.4l-1.1,13.8
					h-11.5L168.3,85.1z M176.8,128.6c0,0.5,0.2,0.9,0.9,0.9h2.7c0.7,0,0.9-0.4,0.7-1.1l-1.4-18.3H178L176.8,128.6z"/>
				<path class="st1" d="M199,81.1h11.5V141c0,1.6,0.7,2.3,2.2,2.3h4c1.1,0,1.6-0.7,1.6-2.2v-9h11.5v17.1H199V81.1z"/>
				<path class="st1" d="M32.7,80.9H9.8c-2.7,0-4,1.6-4,4.9v58.6c0,3.1,1.3,4.5,3.8,4.5h26.9v-5.9H19.9c-1.6,0-2.5-0.9-2.5-2.9
					v-25.2c0-1.6,0.7-2.5,2.2-2.5h3.6c1.3,0,2,0.9,2,2.5v3.1l1.1,8.4l1.4-7.4l1.3,7.4l1.4-7.4l1.4,7.4l1.6-7.4l1.4,7.4
					c0,0,1.6-8.3,1.6-8.4c0-0.2,0-32.2,0-32.2C36.6,82.6,35.4,80.9,32.7,80.9z"/>
				<polygon class="st1" points="117.1,85.8 123.6,81.1 123.6,81.1 112.1,81.1 112.1,149.2 123.6,149.2 123.6,86 				"/>
			</g>
		</g>
		<g>
			<g>
				<path class="st1" d="M229.4,86.2c0,2.9-2.3,5.2-5.4,5.2c-3.1,0-5.6-2.3-5.6-5.2s2.5-5.2,5.6-5.2
					C227.1,80.9,229.4,83.3,229.4,86.2z M219.9,86.2c0,2.3,1.8,4.1,4.1,4.1s4.1-1.8,4.1-4.1S226.3,82,224,82S219.9,83.8,219.9,86.2z
					 M223.1,88.9h-1.3v-5.2c0.5,0,1.3-0.2,2-0.2c1.1,0,1.4,0.2,1.8,0.4c0.4,0.2,0.5,0.5,0.5,1.1s-0.4,1.1-1.1,1.3l0,0
					c0.5,0.2,0.9,0.5,0.9,1.3c0.2,0.7,0.2,1.1,0.4,1.3h-1.3c-0.2-0.2-0.2-0.7-0.4-1.3c0-0.5-0.4-0.9-1.1-0.9h-0.5
					C223.1,86.5,223.1,88.9,223.1,88.9z M223.1,86h0.5c0.7,0,1.3-0.2,1.3-0.7s-0.4-0.7-1.1-0.7c-0.4,0-0.5,0-0.7,0V86z"/>
			</g>
		</g>
	</g>
</g>
</svg>
